<!DOCTYPE svg PUBLIC "-//W3C//DTD SVG 1.1//EN" "http://www.w3.org/Graphics/SVG/1.1/DTD/svg11.dtd">
<!-- Uploaded to: SVG Repo, www.svgrepo.com, Transformed by: SVG Repo Mixer Tools -->
<svg fill="#15803d" height="800px" width="800px" version="1.1" id="Capa_1" xmlns="http://www.w3.org/2000/svg" xmlns:xlink="http://www.w3.org/1999/xlink" viewBox="0 0 312.85 312.85" xml:space="preserve" stroke="#15803d">
<g id="SVGRepo_bgCarrier" stroke-width="0"/>
<g id="SVGRepo_tracerCarrier" stroke-linecap="round" stroke-linejoin="round"/>
<g id="SVGRepo_iconCarrier"> <g> <path d="M146.216,0.146c-3.314-0.681-6.636,1.07-7.96,4.177l-48.22,113.148c-14.866,32.859-1.147,72.203,4.714,86.19l-57.86,47.961 c-1.478,1.225-2.397,2.996-2.549,4.909c-0.152,1.914,0.477,3.807,1.743,5.25l42.698,48.649c1.354,1.542,3.302,2.419,5.341,2.419 c0.12,0,0.24-0.003,0.36-0.009c2.169-0.11,4.168-1.205,5.428-2.974l60.574-85.014c0.857-1.203,1.318-2.644,1.319-4.121 l0.004-10.139c0.02-43.193,0.092-195.469,0.092-203.485C151.901,3.732,149.525,0.821,146.216,0.146z"/> <path d="M278.509,256.531c-0.151-1.914-1.071-3.685-2.549-4.909l-57.861-47.961c5.862-13.987,19.581-53.331,4.714-86.19 L174.593,4.323c-1.323-3.107-4.651-4.857-7.96-4.177c-3.309,0.675-5.685,3.586-5.685,6.963c0,8.016,0.072,160.292,0.092,203.485 l0.004,10.139c0.001,1.477,0.461,2.917,1.319,4.121l60.574,85.014c1.26,1.768,3.259,2.864,5.428,2.974 c0.121,0.006,0.241,0.009,0.36,0.009c2.04,0,3.988-0.877,5.341-2.419l42.698-48.649 C278.032,260.338,278.661,258.445,278.509,256.531z"/> </g> </g>
</svg>